<svg xmlns="http://www.w3.org/2000/svg" viewBox="0 0 32 32" width="32" height="32">
  <!-- Background circle with gradient -->
  <defs>
    <linearGradient id="bgGradient" x1="0%" y1="0%" x2="100%" y2="100%">
      <stop offset="0%" style="stop-color:#22c55e;stop-opacity:1" />
      <stop offset="100%" style="stop-color:#16a34a;stop-opacity:1" />
    </linearGradient>
  </defs>
  
  <circle cx="16" cy="16" r="15" fill="url(#bgGradient)" stroke="#15803d" stroke-width="1"/>
  
  <!-- Eco-friendly leaf design -->
  <path d="M16 8c-1.5 0-3 0.5-4 1.5-1-1-2.5-1.5-4-1.5v1.5c1 0 2 0.5 2.5 1-0.5 0.5-1 1-1 2 0 1.5 0.5 3 2 3.5-1.5 0.5-2 2-2 3.5 0 1 0.5 1.5 1.5 1.5h1.5c1 0 1.5-0.5 1.5-1.5 0-1.5-0.5-3-2-3.5 1.5-0.5 2-2 2-3.5 0-1-0.5-2-1-2 0.5-0.5 1.5-1 2.5-1V8c-1.5 0-3 0.5-4 1.5z" fill="#ffffff" opacity="0.9"/>
  
  <!-- Shopping bag icon -->
  <path d="M12 12h8v2h-8v-2zm0 2h8v6h-8v-6zm-2 0v6c0 1 1 2 2 2h8c1 0 2-1 2-2v-6h-2v4h-8v-4h-2z" fill="#ffffff" opacity="0.7"/>
  
  <!-- Eco symbol -->
  <text x="16" y="22" text-anchor="middle" font-family="Arial, sans-serif" font-size="6" font-weight="bold" fill="#ffffff">E</text>
</svg>
